<?xml version="1.0" encoding="UTF-8" standalone="no"?>
<!-- Created with Inkscape (http://www.inkscape.org/) -->

<svg
   xmlns:dc="http://purl.org/dc/elements/1.1/"
   xmlns:cc="http://creativecommons.org/ns#"
   xmlns:rdf="http://www.w3.org/1999/02/22-rdf-syntax-ns#"
   xmlns:svg="http://www.w3.org/2000/svg"
   xmlns="http://www.w3.org/2000/svg"
   xmlns:sodipodi="http://sodipodi.sourceforge.net/DTD/sodipodi-0.dtd"
   xmlns:inkscape="http://www.inkscape.org/namespaces/inkscape"
   width="500.04218"
   height="569.00824"
   viewBox="0 0 132.30283 150.55009"
   version="1.1"
   id="svg8"
   inkscape:version="0.92.4 (5da689c313, 2019-01-14)"
   sodipodi:docname="link.svg">
  <defs
     id="defs2" />
  <sodipodi:namedview
     id="base"
     pagecolor="#ffffff"
     bordercolor="#666666"
     borderopacity="1.0"
     inkscape:pageopacity="0.0"
     inkscape:pageshadow="2"
     inkscape:zoom="0.49497475"
     inkscape:cx="-82.872141"
     inkscape:cy="662.02656"
     inkscape:document-units="mm"
     inkscape:current-layer="layer1"
     showgrid="false"
     showguides="true"
     inkscape:guide-bbox="true"
     fit-margin-top="0"
     fit-margin-left="0"
     fit-margin-right="0"
     fit-margin-bottom="0"
     units="px"
     inkscape:window-width="3840"
     inkscape:window-height="2004"
     inkscape:window-x="-16"
     inkscape:window-y="-16"
     inkscape:window-maximized="1">
    <sodipodi:guide
       position="-118.39621,305.67771"
       orientation="0,1"
       id="guide834"
       inkscape:locked="false" />
  </sodipodi:namedview>
  <metadata
     id="metadata5">
    <rdf:RDF>
      <cc:Work
         rdf:about="">
        <dc:format>image/svg+xml</dc:format>
        <dc:type
           rdf:resource="http://purl.org/dc/dcmitype/StillImage" />
        <dc:title></dc:title>
      </cc:Work>
    </rdf:RDF>
  </metadata>
  <g
     inkscape:label="Layer 1"
     inkscape:groupmode="layer"
     id="layer1"
     transform="translate(-2.1685351,-145.02195)">
    <path
       inkscape:connector-curvature="0"
       style="opacity:1;fill:#000000;fill-opacity:1;stroke:none;stroke-width:2.64583325;stroke-linecap:round;stroke-miterlimit:4;stroke-dasharray:none;stroke-dashoffset:0;stroke-opacity:1"
       d="m 78.847393,207.64598 a 4.6302086,4.6302086 0 0 0 -0.31614,-0.23299 26.458333,26.458333 0 0 0 -36.91328,3.98203 L 8.1376095,252.37354 a 26.458333,26.458333 0 0 0 3.7490775,37.22944 26.458333,26.458333 0 0 0 37.229446,-3.74909 l 25.11026,-30.73388 a 4.6302086,4.6302086 0 0 0 -0.65609,-6.51514 4.6302086,4.6302086 0 0 0 -6.51514,0.65608 l -25.11027,30.73389 a 17.197915,17.197915 0 0 1 -1.152929,1.27552 17.197915,17.197915 0 0 1 -1.274248,1.1537 17.197915,17.197915 0 0 1 -1.383136,1.02069 17.197915,17.197915 0 0 1 -1.478337,0.8775 17.197915,17.197915 0 0 1 -1.558299,0.72543 17.197915,17.197915 0 0 1 -1.623166,0.56635 17.197915,17.197915 0 0 1 -1.671669,0.40191 17.197915,17.197915 0 0 1 -1.703425,0.2325 17.197915,17.197915 0 0 1 -1.717714,0.0613 17.197915,17.197915 0 0 1 -1.715554,-0.1104 17.197915,17.197915 0 0 1 -1.695649,-0.28094 17.197915,17.197915 0 0 1 -1.659687,-0.44913 17.197915,17.197915 0 0 1 -1.606341,-0.61241 17.197915,17.197915 0 0 1 -1.536932,-0.76925 17.197915,17.197915 0 0 1 -1.452904,-0.91946 17.197915,17.197915 0 0 1 -0.969173,-0.73644 17.197915,17.197915 0 0 1 -1.275114,-1.15259 17.197915,17.197915 0 0 1 -1.1541,-1.27458 17.197915,17.197915 0 0 1 -1.020703,-1.38312 17.197915,17.197915 0 0 1 -0.877511,-1.47834 17.197915,17.197915 0 0 1 -0.725428,-1.55832 17.197915,17.197915 0 0 1 -0.566337,-1.62316 17.197915,17.197915 0 0 1 -0.401919,-1.67166 17.197915,17.197915 0 0 1 -0.232498,-1.70343 17.197915,17.197915 0 0 1 -0.06133,-1.71772 17.197915,17.197915 0 0 1 0.110386,-1.71555 17.197915,17.197915 0 0 1 0.280975,-1.69564 17.197915,17.197915 0 0 1 0.44912,-1.65968 17.197915,17.197915 0 0 1 0.612421,-1.60635 17.197915,17.197915 0 0 1 0.769231,-1.53693 17.197915,17.197915 0 0 1 0.919469,-1.45291 17.197915,17.197915 0 0 1 0.736447,-0.96917 l 33.480364,-40.97851 a 17.197915,17.197915 0 0 1 1.15257,-1.27513 17.197915,17.197915 0 0 1 1.27459,-1.1541 17.197915,17.197915 0 0 1 1.38312,-1.0207 17.197915,17.197915 0 0 1 1.47835,-0.87751 17.197915,17.197915 0 0 1 1.5583,-0.72543 17.197915,17.197915 0 0 1 1.62317,-0.56634 17.197915,17.197915 0 0 1 1.67166,-0.40191 17.197915,17.197915 0 0 1 1.70343,-0.23251 17.197915,17.197915 0 0 1 1.71771,-0.0613 17.197915,17.197915 0 0 1 1.71556,0.1104 17.197915,17.197915 0 0 1 1.69564,0.28093 17.197915,17.197915 0 0 1 1.65968,0.44912 17.197915,17.197915 0 0 1 1.60635,0.61241 17.197915,17.197915 0 0 1 1.53695,0.76924 17.197915,17.197915 0 0 1 1.4529,0.91948 17.197915,17.197915 0 0 1 0.96917,0.73643 4.6302086,4.6302086 0 0 0 6.51515,-0.65609 4.6302086,4.6302086 0 0 0 -0.65609,-6.51516 z"
       id="path948-6" />
    <path
       inkscape:connector-curvature="0"
       style="opacity:1;fill:#000000;fill-opacity:1;stroke:none;stroke-width:2.64583325;stroke-linecap:round;stroke-miterlimit:4;stroke-dasharray:none;stroke-dashoffset:0;stroke-opacity:1"
       d="m 57.792503,232.94802 a 4.6302086,4.6302086 0 0 0 0.31614,0.23299 26.458333,26.458333 0 0 0 36.91329,-3.98203 l 33.480357,-40.97852 a 26.458333,26.458333 0 0 0 -3.74908,-37.22944 26.458333,26.458333 0 0 0 -37.229437,3.74909 l -25.11027,30.73388 a 4.6302086,4.6302086 0 0 0 0.65609,6.51514 4.6302086,4.6302086 0 0 0 6.51515,-0.65608 l 25.11027,-30.73389 a 17.197915,17.197915 0 0 1 1.15293,-1.27552 17.197915,17.197915 0 0 1 1.27425,-1.1537 17.197915,17.197915 0 0 1 1.38313,-1.02069 17.197915,17.197915 0 0 1 1.47834,-0.8775 17.197915,17.197915 0 0 1 1.558287,-0.72543 17.197915,17.197915 0 0 1 1.62317,-0.56635 17.197915,17.197915 0 0 1 1.67167,-0.40191 17.197915,17.197915 0 0 1 1.70342,-0.2325 17.197915,17.197915 0 0 1 1.71772,-0.0613 17.197915,17.197915 0 0 1 1.71555,0.1104 17.197915,17.197915 0 0 1 1.69565,0.28094 17.197915,17.197915 0 0 1 1.65969,0.44913 17.197915,17.197915 0 0 1 1.60634,0.61241 17.197915,17.197915 0 0 1 1.53693,0.76925 17.197915,17.197915 0 0 1 1.45291,0.91946 17.197915,17.197915 0 0 1 0.96917,0.73644 17.197915,17.197915 0 0 1 1.27511,1.15259 17.197915,17.197915 0 0 1 1.1541,1.27458 17.197915,17.197915 0 0 1 1.02071,1.38312 17.197915,17.197915 0 0 1 0.87751,1.47834 17.197915,17.197915 0 0 1 0.72542,1.55832 17.197915,17.197915 0 0 1 0.56634,1.62316 17.197915,17.197915 0 0 1 0.40192,1.67166 17.197915,17.197915 0 0 1 0.2325,1.70343 17.197915,17.197915 0 0 1 0.0613,1.71772 17.197915,17.197915 0 0 1 -0.11039,1.71555 17.197915,17.197915 0 0 1 -0.28097,1.69564 17.197915,17.197915 0 0 1 -0.44912,1.65968 17.197915,17.197915 0 0 1 -0.61242,1.60635 17.197915,17.197915 0 0 1 -0.76923,1.53693 17.197915,17.197915 0 0 1 -0.91947,1.45291 17.197915,17.197915 0 0 1 -0.73645,0.96917 l -33.480327,40.97851 a 17.197915,17.197915 0 0 1 -1.15257,1.27513 17.197915,17.197915 0 0 1 -1.27459,1.1541 17.197915,17.197915 0 0 1 -1.38312,1.0207 17.197915,17.197915 0 0 1 -1.47835,0.87751 17.197915,17.197915 0 0 1 -1.5583,0.72543 17.197915,17.197915 0 0 1 -1.62317,0.56634 17.197915,17.197915 0 0 1 -1.67166,0.40191 17.197915,17.197915 0 0 1 -1.70343,0.23251 17.197915,17.197915 0 0 1 -1.71771,0.0613 17.197915,17.197915 0 0 1 -1.71556,-0.1104 17.197915,17.197915 0 0 1 -1.69564,-0.28093 17.197915,17.197915 0 0 1 -1.65968,-0.44912 17.197915,17.197915 0 0 1 -1.60635,-0.61241 17.197915,17.197915 0 0 1 -1.53695,-0.76924 17.197915,17.197915 0 0 1 -1.4529,-0.91948 17.197915,17.197915 0 0 1 -0.96918,-0.73643 4.6302086,4.6302086 0 0 0 -6.51515,0.65609 4.6302086,4.6302086 0 0 0 0.65609,6.51516 z"
       id="path948-6-2" />
  </g>
</svg>
