<?xml version="1.0" encoding="UTF-8" standalone="no"?>
<!-- Created with Inkscape (http://www.inkscape.org/) -->

<svg
   xmlns:dc="http://purl.org/dc/elements/1.1/"
   xmlns:cc="http://creativecommons.org/ns#"
   xmlns:rdf="http://www.w3.org/1999/02/22-rdf-syntax-ns#"
   xmlns:svg="http://www.w3.org/2000/svg"
   xmlns="http://www.w3.org/2000/svg"
   xmlns:sodipodi="http://sodipodi.sourceforge.net/DTD/sodipodi-0.dtd"
   xmlns:inkscape="http://www.inkscape.org/namespaces/inkscape"
   width="120.52708mm"
   height="119.20448mm"
   viewBox="0 0 120.52708 119.20448"
   version="1.1"
   id="svg4722"
   inkscape:version="0.92.4 (5da689c313, 2019-01-14)"
   sodipodi:docname="link.svg">
  <defs
     id="defs4716" />
  <sodipodi:namedview
     id="base"
     pagecolor="#ffffff"
     bordercolor="#666666"
     borderopacity="1.0"
     inkscape:pageopacity="0.0"
     inkscape:pageshadow="2"
     inkscape:zoom="1.4"
     inkscape:cx="-482.83693"
     inkscape:cy="175.69258"
     inkscape:document-units="mm"
     inkscape:current-layer="layer1"
     showgrid="false"
     fit-margin-top="0"
     fit-margin-left="0"
     fit-margin-right="0"
     fit-margin-bottom="0"
     inkscape:window-width="3840"
     inkscape:window-height="2004"
     inkscape:window-x="-16"
     inkscape:window-y="-16"
     inkscape:window-maximized="1" />
  <metadata
     id="metadata4719">
    <rdf:RDF>
      <cc:Work
         rdf:about="">
        <dc:format>image/svg+xml</dc:format>
        <dc:type
           rdf:resource="http://purl.org/dc/dcmitype/StillImage" />
        <dc:title></dc:title>
      </cc:Work>
    </rdf:RDF>
  </metadata>
  <g
     inkscape:label="Layer 1"
     inkscape:groupmode="layer"
     id="layer1"
     transform="translate(-3.2364805,-1.1626425)">
    <path
       inkscape:connector-curvature="0"
       style="opacity:1;fill:#000000;fill-opacity:1;stroke:none;stroke-width:2.64583325;stroke-linecap:round;stroke-miterlimit:4;stroke-dasharray:none;stroke-dashoffset:0;stroke-opacity:1"
       d="m 82.729446,57.163601 a 26.458331,26.458331 0 0 0 -6.26215,-10.027296 26.458331,26.458331 0 0 0 -37.41788,0 l -28.0634,28.063405 a 26.458331,26.458331 0 0 0 0,37.41787 26.458331,26.458331 0 0 0 37.41787,0 l 25.58345,-25.583452 a 31.75,31.75 0 0 1 -1.27744,0.205155 31.75,31.75 0 0 1 -3.16828,0.188103 31.75,31.75 0 0 1 -3.17087,-0.129191 31.75,31.75 0 0 1 -3.14244,-0.44545 31.75,31.75 0 0 1 -3.08198,-0.756544 31.75,31.75 0 0 1 -0.13901,-0.04909 L 40.920626,105.1338 a 15.875,15.875 0 0 1 -1.17668,1.06505 15.875,15.875 0 0 1 -1.27744,0.94154 15.875,15.875 0 0 1 -1.36477,0.80925 15.875,15.875 0 0 1 -1.43867,0.66973 15.875,15.875 0 0 1 -1.49862,0.52193 15.875,15.875 0 0 1 -1.54306,0.37001 15.875,15.875 0 0 1 -1.572,0.21445 15.875,15.875 0 0 1 -1.58595,0.0563 15.875,15.875 0 0 1 -1.58388,-0.10232 15.875,15.875 0 0 1 -1.56528,-0.26045 15.875,15.875 0 0 1 -1.53168,-0.41496 15.875,15.875 0 0 1 -1.48209,-0.56586 15.875,15.875 0 0 1 -1.41903,-0.71055 15.875,15.875 0 0 1 -1.34049,-0.84956 15.875,15.875 0 0 1 -1.24902,-0.97875 15.875,15.875 0 0 1 -0.82217,-0.76584 15.875,15.875 0 0 1 -1.06505,-1.17616 15.875,15.875 0 0 1 -0.94154,-1.27744 15.875,15.875 0 0 1 -0.80926,-1.36478 15.875,15.875 0 0 1 -0.66972,-1.43866 15.875,15.875 0 0 1 -0.52194,-1.498619 15.875,15.875 0 0 1 -0.37,-1.543058 15.875,15.875 0 0 1 -0.21446,-1.571995 15.875,15.875 0 0 1 -0.0563,-1.58595 15.875,15.875 0 0 1 0.10232,-1.583883 15.875,15.875 0 0 1 0.26045,-1.56528 15.875,15.875 0 0 1 0.41445,-1.531689 15.875,15.875 0 0 1 0.56637,-1.482079 15.875,15.875 0 0 1 0.71055,-1.419037 15.875,15.875 0 0 1 0.84956,-1.340485 15.875,15.875 0 0 1 0.97875,-1.249019 15.875,15.875 0 0 1 0.76585,-0.822174 l 28.0634,-28.063375 a 15.875,15.875 0 0 1 1.17668,-1.065051 15.875,15.875 0 0 1 1.27692,-0.941546 15.875,15.875 0 0 1 1.36478,-0.809252 15.875,15.875 0 0 1 1.43918,-0.669211 15.875,15.875 0 0 1 1.4981,-0.522449 15.875,15.875 0 0 1 1.54358,-0.370001 15.875,15.875 0 0 1 1.57148,-0.214458 15.875,15.875 0 0 1 1.58595,-0.05581 15.875,15.875 0 0 1 1.58388,0.101804 15.875,15.875 0 0 1 1.56528,0.260448 15.875,15.875 0 0 1 1.53169,0.414961 15.875,15.875 0 0 1 1.48208,0.565857 15.875,15.875 0 0 1 1.41852,0.711068 15.875,15.875 0 0 1 1.341,0.849045 15.875,15.875 0 0 1 1.24902,0.978752 15.875,15.875 0 0 1 0.82217,0.765844 15.875,15.875 0 0 1 1.06454,1.17719 15.875,15.875 0 0 1 0.94206,1.276405 15.875,15.875 0 0 1 0.80925,1.364777 15.875,15.875 0 0 1 0.66973,1.439187 15.875,15.875 0 0 1 0.52193,1.498616 15.875,15.875 0 0 1 0.37,1.543061 15.875,15.875 0 0 1 0.21446,1.571995 15.875,15.875 0 0 1 0.0289,0.82114 10.583333,10.583333 0 0 0 0.57516,-0.267684 10.583333,10.583333 0 0 0 0.91002,-0.538986 10.583333,10.583333 0 0 1 5.3e-4,-5.29e-4 10.583333,10.583333 0 0 0 0.85112,-0.627869 10.583333,10.583333 0 0 0 0.78393,-0.709517 z"
       id="path4704" />
    <path
       inkscape:connector-curvature="0"
       style="opacity:1;fill:#000000;fill-opacity:1;stroke:none;stroke-width:2.64583325;stroke-linecap:round;stroke-miterlimit:4;stroke-dasharray:none;stroke-dashoffset:0;stroke-opacity:1"
       d="m 96.918756,1.1654648 a 26.458331,26.458331 0 0 0 -18.3224,7.746816 L 53.025316,34.482814 a 31.75,31.75 0 0 1 0.33331,-0.06356 31.75,31.75 0 0 1 3.16105,-0.280088 31.75,31.75 0 0 1 3.17344,0.03721 31.75,31.75 0 0 1 3.15382,0.353468 31.75,31.75 0 0 1 3.10317,0.666625 31.75,31.75 0 0 1 1.0051,0.323493 l 19.12442,-19.124419 a 15.875,15.875 0 0 1 1.17667,-1.064532 15.875,15.875 0 0 1 1.27692,-0.942062 15.875,15.875 0 0 1 1.36478,-0.809252 15.875,15.875 0 0 1 1.43919,-0.66921 15.875,15.875 0 0 1 1.49861,-0.522449 15.875,15.875 0 0 1 1.54306,-0.370004 15.875,15.875 0 0 1 1.572,-0.213939 15.875,15.875 0 0 1 1.58595,-0.05633 15.875,15.875 0 0 1 1.58336,0.102319 15.875,15.875 0 0 1 1.565804,0.259932 15.875,15.875 0 0 1 1.53169,0.414962 15.875,15.875 0 0 1 1.48208,0.565857 15.875,15.875 0 0 1 1.41904,0.710551 15.875,15.875 0 0 1 1.34049,0.849558 15.875,15.875 0 0 1 1.24902,0.978752 15.875,15.875 0 0 1 0.82217,0.765844 15.875,15.875 0 0 1 1.06453,1.176674 15.875,15.875 0 0 1 0.94206,1.276924 15.875,15.875 0 0 1 0.80926,1.364774 15.875,15.875 0 0 1 0.66921,1.43919 15.875,15.875 0 0 1 0.52245,1.498616 15.875,15.875 0 0 1 0.37,1.543058 15.875,15.875 0 0 1 0.21394,1.571998 15.875,15.875 0 0 1 0.0563,1.585951 15.875,15.875 0 0 1 -0.10232,1.583364 15.875,15.875 0 0 1 -0.25994,1.565796 15.875,15.875 0 0 1 -0.41496,1.531173 15.875,15.875 0 0 1 -0.56585,1.482599 15.875,15.875 0 0 1 -0.71056,1.418519 15.875,15.875 0 0 1 -0.84956,1.341003 15.875,15.875 0 0 1 -0.97875,1.249019 15.875,15.875 0 0 1 -0.76584,0.822171 L 80.467046,66.909777 a 15.875,15.875 0 0 1 -1.17667,1.064532 15.875,15.875 0 0 1 -1.27693,0.941546 15.875,15.875 0 0 1 -1.36477,0.809252 15.875,15.875 0 0 1 -1.43919,0.669727 15.875,15.875 0 0 1 -1.49862,0.521933 15.875,15.875 0 0 1 -1.54305,0.37052 15.875,15.875 0 0 1 -1.572,0.213939 15.875,15.875 0 0 1 -1.58595,0.05633 15.875,15.875 0 0 1 -1.58337,-0.102319 15.875,15.875 0 0 1 -1.56528,-0.259932 15.875,15.875 0 0 1 -1.5322,-0.415478 15.875,15.875 0 0 1 -1.48208,-0.565341 15.875,15.875 0 0 1 -1.41852,-0.711067 15.875,15.875 0 0 1 -1.34101,-0.849562 15.875,15.875 0 0 1 -1.24901,-0.978233 15.875,15.875 0 0 1 -0.82218,-0.765844 15.875,15.875 0 0 1 -1.06401,-1.17719 15.875,15.875 0 0 1 -0.94206,-1.276924 15.875,15.875 0 0 1 -0.80977,-1.364776 15.875,15.875 0 0 1 -0.66922,-1.438672 15.875,15.875 0 0 1 -0.52193,-1.498616 15.875,15.875 0 0 1 -0.37052,-1.543058 15.875,15.875 0 0 1 -0.21394,-1.571998 15.875,15.875 0 0 1 -0.0289,-0.821137 10.583333,10.583333 0 0 0 -0.57516,0.267166 10.583333,10.583333 0 0 0 -0.91002,0.539501 10.583333,10.583333 0 0 0 -0.85162,0.627869 10.583333,10.583333 0 0 0 -0.78445,0.710036 l -6.00377,6.003763 a 26.458331,26.458331 0 0 0 6.26215,10.027296 26.458331,26.458331 0 0 0 37.41787,0 L 116.01376,46.329636 h 5.3e-4 a 26.458331,26.458331 0 0 0 0,-37.4173552 26.458331,26.458331 0 0 0 -19.095484,-7.746816 z"
       id="rect840-9-3-0" />
  </g>
</svg>
